<?xml version="1.0" encoding="utf-8"?>
<!-- Generator: Adobe Illustrator 16.0.4, SVG Export Plug-In . SVG Version: 6.00 Build 0)  -->
<!DOCTYPE svg PUBLIC "-//W3C//DTD SVG 1.1//EN" "http://www.w3.org/Graphics/SVG/1.1/DTD/svg11.dtd">
<svg version="1.1" id="Calque_1" xmlns="http://www.w3.org/2000/svg" xmlns:xlink="http://www.w3.org/1999/xlink" x="0px" y="0px"
	 width="447px" height="141px" viewBox="203.445 49.5 447 141" enable-background="new 203.445 49.5 447 141" xml:space="preserve">
<g id="Calque_2">
	<rect x="203.445" y="49.5" fill="#00326E" width="447" height="141"/>
</g>
<g id="Calque_1_1_">
	<g>
		<circle fill="#C8910F" cx="426.64" cy="53.607" r="1.182"/>
		<polygon fill="#C8910F" points="426.64,90.018 396.856,102.421 396.856,102.421 456.427,102.421 		"/>
		<path fill="#C8910F" d="M433.333,78.565v-5.227l-1.853-1.801v-6.391l0.912-0.905c-0.124-0.136-3.173-3.517-4.203-8.122h-3.134
			c-0.987,4.416-3.832,7.706-4.173,8.091l-0.008,0.015l0.926,0.92v6.391l-1.854,1.801v5.227
			c-7.809,2.597-13.602,9.608-14.412,18.077l20.337-8.469l0.768-0.32l0.771,0.32l20.337,8.469
			C446.935,88.174,441.142,81.162,433.333,78.565z M428.626,67.242c0-0.345,0.119-0.824,0.733-0.824
			c0.613,0,0.733,0.487,0.733,0.824v5.263c-0.486-0.078-0.973-0.141-1.467-0.186V67.242z M425.651,66.902
			c0-0.481,0.167-1.15,1.026-1.15c0.855,0,1.023,0.681,1.023,1.15v5.354c-0.34-0.016-0.682-0.026-1.025-0.026
			c-0.343,0-0.685,0.009-1.024,0.026V66.902L425.651,66.902z M423.208,67.242c0-0.345,0.119-0.824,0.734-0.824
			c0.613,0,0.732,0.487,0.732,0.824v5.083c-0.493,0.046-0.982,0.108-1.467,0.188V67.242L423.208,67.242z"/>
	</g>
	<g>
		<path fill="#FFFFFF" d="M216.081,171.646v1.209h-10.704v-1.209l2.417-0.474c0.028-0.028,0.115-0.224,0.259-0.584
			c0.144-0.359,0.215-0.812,0.215-1.359v-20.847c0-0.258-0.028-0.502-0.086-0.733c-0.058-0.229-0.115-0.432-0.173-0.604
			c-0.086-0.201-0.158-0.403-0.215-0.604l-2.417-0.433v-1.208h10.358c1.381,0,2.698,0.109,3.95,0.324
			c1.251,0.216,2.352,0.59,3.302,1.121c0.949,0.533,1.705,1.252,2.266,2.158c0.562,0.907,0.841,2.051,0.841,3.432
			c0,1.496-0.302,2.756-0.906,3.777c-0.604,1.021-1.417,1.854-2.439,2.502s-2.187,1.117-3.496,1.403
			c-1.31,0.288-2.654,0.433-4.036,0.433c-0.259-0.316-0.446-0.605-0.562-0.863c-0.058-0.115-0.086-0.229-0.086-0.346
			c0.978-0.115,1.87-0.279,2.677-0.496c0.805-0.217,1.495-0.567,2.071-1.059c0.575-0.486,1.021-1.143,1.338-1.963
			c0.316-0.82,0.475-1.905,0.475-3.259c0-1.554-0.454-2.849-1.36-3.885c-0.906-1.035-2.266-1.554-4.079-1.554h-2.546v22.702
			c0,0.547,0.071,1.008,0.215,1.382c0.087,0.202,0.173,0.388,0.259,0.562L216.081,171.646z"/>
		<path fill="#FFFFFF" d="M248.209,168.712c0.201,0.518,0.389,0.943,0.561,1.272c0.172,0.332,0.381,0.604,0.626,0.82
			c0.244,0.217,0.554,0.389,0.928,0.52c0.374,0.129,0.877,0.236,1.511,0.322v1.209h-11.438v-1.165c0.662,0,1.236-0.087,1.726-0.261
			c0.402-0.143,0.734-0.379,0.993-0.711c0.259-0.33,0.273-0.812,0.043-1.445c-0.432-1.18-0.87-2.381-1.316-3.604
			c-0.446-1.224-0.884-2.41-1.316-3.562h-8.632c-0.461,1.151-0.907,2.331-1.338,3.538c-0.432,1.21-0.849,2.417-1.251,3.627
			c-0.173,0.518-0.194,0.92-0.065,1.209c0.13,0.287,0.346,0.517,0.648,0.69c0.302,0.172,0.662,0.287,1.079,0.345
			c0.417,0.059,0.812,0.102,1.187,0.129v1.209h-9.323v-1.209c0.374,0.059,0.761,0.016,1.165-0.129
			c0.346-0.143,0.719-0.381,1.122-0.713c0.403-0.33,0.777-0.869,1.123-1.619c1.84-3.884,3.553-7.91,5.136-12.084
			c1.582-4.171,3.15-8.229,4.704-12.172c0.345-0.086,0.676-0.186,0.993-0.301c0.287-0.087,0.59-0.166,0.906-0.238
			c0.316-0.07,0.604-0.107,0.863-0.107L248.209,168.712z M239.923,160.425c-0.403-1.295-0.82-2.575-1.252-3.841
			c-0.375-1.092-0.771-2.238-1.187-3.432c-0.418-1.195-0.798-2.251-1.143-3.172c-0.604,1.756-1.245,3.494-1.92,5.223
			c-0.677,1.727-1.317,3.468-1.921,5.222H239.923z"/>
		<path fill="#FFFFFF" d="M282.103,144.801v1.208c-0.317,0.029-0.669,0.058-1.057,0.087c-0.389,0.029-0.749,0.108-1.079,0.237
			c-0.331,0.13-0.612,0.354-0.841,0.669c-0.231,0.318-0.346,0.792-0.346,1.426v24.427h-2.503l-16.832-21.451v17.868
			c0,0.517,0.123,0.928,0.367,1.229c0.244,0.304,0.546,0.541,0.906,0.714c0.359,0.171,0.761,0.288,1.208,0.345
			c0.446,0.059,0.884,0.102,1.316,0.131v1.165h-9.15v-1.165c0.374,0,0.755-0.014,1.144-0.043c0.389-0.029,0.727-0.123,1.014-0.28
			c0.287-0.158,0.525-0.404,0.713-0.733c0.186-0.33,0.28-0.784,0.28-1.359V149.29c0-0.546-0.129-1.014-0.388-1.404
			c-0.259-0.39-0.547-0.712-0.863-0.972c-0.345-0.315-0.749-0.576-1.208-0.775c-0.145-0.172-0.238-0.33-0.28-0.475
			c-0.043-0.145-0.094-0.287-0.151-0.434c-0.058-0.143-0.086-0.287-0.086-0.433h5.957l16.357,20.89v-17.263
			c0-0.517-0.115-0.935-0.345-1.251c-0.23-0.316-0.518-0.555-0.863-0.713c-0.345-0.158-0.741-0.266-1.187-0.325
			c-0.446-0.057-0.884-0.099-1.315-0.128v-1.21h9.235V144.801L282.103,144.801z"/>
		<path fill="#FFFFFF" d="M309.786,144.801c0,0.576,0.021,1.143,0.065,1.705c0.043,0.561,0.093,1.058,0.151,1.488
			c0.087,0.518,0.173,1.009,0.259,1.467c-0.547,0.201-1.008,0.346-1.381,0.433c-0.202,0.058-0.375,0.087-0.519,0.087
			c-0.028-0.287-0.072-0.562-0.129-0.82c-0.058-0.229-0.115-0.46-0.173-0.69c-0.058-0.229-0.159-0.417-0.302-0.562
			c-0.403-0.576-0.957-0.95-1.661-1.123c-0.706-0.172-1.49-0.258-2.353-0.258h-4.1v22.746c0,0.547,0.071,1.007,0.215,1.381
			c0.087,0.2,0.173,0.387,0.259,0.561l2.504,0.476v1.165h-10.748v-1.165c-0.058,0-0.029-0.015,0.086-0.044
			c0.115-0.027,0.345-0.079,0.69-0.15c0.345-0.07,0.864-0.165,1.553-0.279c0.029-0.028,0.115-0.223,0.259-0.584
			c0.144-0.359,0.216-0.812,0.216-1.359v-22.746h-4.101c-0.893,0-1.669,0.086-2.331,0.26c-0.662,0.172-1.194,0.546-1.597,1.121
			c-0.144,0.145-0.237,0.332-0.28,0.562c-0.043,0.231-0.094,0.461-0.151,0.69c-0.058,0.259-0.086,0.534-0.086,0.82
			c-0.172,0-0.374-0.027-0.604-0.087c-0.202-0.056-0.424-0.108-0.669-0.149c-0.245-0.044-0.482-0.123-0.712-0.237
			c0.057-0.46,0.129-0.95,0.216-1.467c0.057-0.433,0.115-0.93,0.173-1.489c0.057-0.562,0.086-1.143,0.086-1.748h25.163V144.801
			L309.786,144.801z"/>
		<path fill="#FFFFFF" d="M340.292,171.646v1.209h-10.704v-1.209l2.418-0.474c0.028-0.028,0.114-0.224,0.258-0.584
			c0.144-0.359,0.217-0.812,0.217-1.359v-10.315h-11.956v10.315c0,0.547,0.072,1.008,0.215,1.382
			c0.087,0.202,0.173,0.388,0.259,0.562l2.46,0.474v1.209h-10.704v-1.209l2.417-0.474c0.028-0.028,0.115-0.224,0.259-0.584
			c0.144-0.359,0.216-0.812,0.216-1.359v-20.847c0-0.258-0.029-0.502-0.086-0.733c-0.059-0.229-0.115-0.432-0.172-0.604
			c-0.086-0.201-0.158-0.403-0.217-0.604l-2.417-0.433v-1.208h10.704v1.208l-2.504,0.476c-0.086,0.171-0.158,0.36-0.216,0.562
			c-0.144,0.374-0.215,0.82-0.215,1.337v8.848h11.956v-8.848c0-0.258-0.029-0.502-0.087-0.733c-0.058-0.229-0.115-0.432-0.172-0.604
			c-0.086-0.201-0.158-0.403-0.215-0.604l-2.417-0.433v-1.208h10.704v1.208l-2.503,0.476c-0.086,0.171-0.159,0.36-0.216,0.562
			c-0.144,0.374-0.216,0.82-0.216,1.337v20.847c0,0.547,0.072,1.008,0.216,1.382c0.086,0.202,0.173,0.388,0.259,0.562
			L340.292,171.646z"/>
		<path fill="#FFFFFF" d="M364.578,168.195c-0.086,0.488-0.171,0.99-0.259,1.508c-0.058,0.463-0.108,0.959-0.151,1.489
			c-0.042,0.533-0.065,1.088-0.065,1.663h-20.286v-1.166l2.375-0.475c0.028-0.029,0.114-0.224,0.259-0.584
			c0.143-0.359,0.216-0.812,0.216-1.359v-20.846c0-0.259-0.029-0.504-0.086-0.734c-0.059-0.23-0.116-0.433-0.172-0.604
			c-0.086-0.2-0.159-0.402-0.216-0.604l-2.374-0.562V144.8h18.298c0.029,0.634,0.087,1.272,0.173,1.921
			c0.085,0.646,0.173,1.23,0.259,1.748c0.115,0.604,0.23,1.194,0.346,1.77c-0.374,0-0.684-0.014-0.928-0.043
			c-0.246-0.027-0.439-0.07-0.584-0.13c-0.171-0.057-0.316-0.129-0.431-0.216c-0.058-0.23-0.13-0.475-0.216-0.732
			c-0.145-0.461-0.345-0.864-0.604-1.209c-0.202-0.287-0.468-0.518-0.799-0.691c-0.331-0.172-0.675-0.309-1.036-0.41
			c-0.36-0.101-0.712-0.171-1.057-0.215c-0.347-0.043-0.648-0.066-0.907-0.066h-4.748v10.705h5.87c0.604,0,0.977-0.346,1.122-1.037
			c0.143-0.691,0.244-1.625,0.301-2.805l1.468,0.217v8.891l-1.468,0.041c-0.058-1.064-0.166-1.934-0.323-2.611
			c-0.159-0.676-0.525-1.014-1.101-1.014h-5.87v12.258h6.69c0.259,0,0.568-0.014,0.928-0.041c0.359-0.029,0.727-0.079,1.101-0.152
			c0.375-0.071,0.727-0.188,1.059-0.346c0.329-0.157,0.595-0.381,0.798-0.669c0.259-0.347,0.431-0.776,0.518-1.298
			c0.057-0.257,0.101-0.531,0.13-0.818L364.578,168.195z M352.407,142.773l1.554,0.517c0.576-0.575,1.166-1.229,1.77-1.964
			c0.604-0.732,1.15-1.416,1.641-2.051c0.574-0.746,1.136-1.481,1.683-2.201l-3.021-1.51L352.407,142.773z"/>
		<path fill="#FFFFFF" d="M380.857,144.24c1.985,0,3.843,0.323,5.568,0.971c1.727,0.646,3.222,1.584,4.489,2.805
			c1.267,1.224,2.258,2.707,2.979,4.445c0.719,1.742,1.078,3.691,1.078,5.85c0,2.416-0.468,4.561-1.402,6.43
			c-0.936,1.871-2.151,3.439-3.647,4.705c-1.496,1.267-3.193,2.23-5.093,2.893c-1.9,0.662-3.813,0.992-5.74,0.992
			c-1.698,0-3.352-0.33-4.963-0.992c-1.613-0.662-3.059-1.618-4.337-2.871c-1.281-1.252-2.309-2.776-3.086-4.574
			c-0.776-1.799-1.165-3.848-1.165-6.15c0-2.158,0.416-4.13,1.25-5.913c0.834-1.784,1.95-3.317,3.346-4.597
			c1.395-1.28,3.021-2.268,4.877-2.957C376.866,144.586,378.815,144.24,380.857,144.24z M389.317,158.268
			c0-1.584-0.195-3.109-0.583-4.576c-0.388-1.467-0.972-2.771-1.747-3.906c-0.777-1.137-1.734-2.042-2.871-2.719
			c-1.137-0.676-2.454-1.014-3.95-1.014c-1.266,0-2.453,0.324-3.561,0.972c-1.108,0.647-2.079,1.547-2.913,2.697
			c-0.834,1.149-1.488,2.497-1.962,4.034c-0.475,1.541-0.713,3.188-0.713,4.943c0,1.295,0.188,2.697,0.562,4.208
			c0.374,1.509,0.928,2.9,1.661,4.165c0.734,1.266,1.654,2.324,2.762,3.172c1.109,0.85,2.396,1.273,3.864,1.273
			c1.208,0,2.38-0.287,3.518-0.863c1.136-0.576,2.142-1.425,3.021-2.547c0.877-1.123,1.582-2.51,2.114-4.164
			C389.05,162.289,389.317,160.396,389.317,158.268z"/>
		<path fill="#FFFFFF" d="M424.484,144.801v1.208c-0.316,0.029-0.668,0.058-1.057,0.087s-0.748,0.108-1.08,0.237
			c-0.33,0.13-0.611,0.354-0.842,0.669c-0.23,0.318-0.345,0.792-0.345,1.426v24.427h-2.504l-16.833-21.451v17.868
			c0,0.517,0.123,0.928,0.368,1.229c0.244,0.304,0.546,0.541,0.906,0.714c0.359,0.171,0.762,0.288,1.208,0.345
			c0.446,0.059,0.883,0.102,1.316,0.131v1.165h-9.15v-1.165c0.373,0,0.755-0.014,1.144-0.043c0.389-0.029,0.726-0.123,1.014-0.28
			c0.287-0.158,0.524-0.404,0.713-0.733c0.186-0.33,0.279-0.784,0.279-1.359V149.29c0-0.546-0.129-1.014-0.388-1.404
			c-0.258-0.39-0.546-0.712-0.862-0.972c-0.347-0.315-0.749-0.576-1.208-0.775c-0.145-0.172-0.239-0.33-0.28-0.475
			c-0.043-0.145-0.095-0.287-0.151-0.434c-0.058-0.143-0.086-0.287-0.086-0.433h5.957l16.357,20.89v-17.263
			c0-0.517-0.116-0.935-0.345-1.251c-0.231-0.316-0.518-0.555-0.863-0.713c-0.345-0.158-0.741-0.266-1.187-0.325
			c-0.446-0.057-0.885-0.099-1.317-0.128v-1.21h9.237V144.801z"/>
		<path fill="#FFFFFF" d="M441.489,150.412c0,0.489,0.136,0.979,0.409,1.468c0.271,0.489,0.641,0.97,1.102,1.446
			c0.459,0.475,0.982,0.936,1.575,1.379c0.589,0.447,1.199,0.886,1.832,1.318c0.864,0.576,1.742,1.194,2.634,1.855
			c0.893,0.661,1.691,1.381,2.396,2.157s1.287,1.618,1.748,2.524c0.459,0.908,0.69,1.894,0.69,2.957c0,1.182-0.231,2.252-0.69,3.215
			c-0.461,0.965-1.129,1.792-2.01,2.482c-0.877,0.691-1.954,1.224-3.237,1.598c-1.279,0.373-2.755,0.561-4.423,0.561
			c-1.352,0-2.446-0.072-3.281-0.216c-0.832-0.145-1.496-0.315-1.982-0.518c-0.547-0.231-0.965-0.489-1.252-0.776
			c0-0.775,0.016-1.525,0.043-2.244c0-0.575,0.008-1.158,0.02-1.748c0.016-0.59-0.007-1-0.063-1.23c0.316-0.027,0.604-0.027,0.862,0
			c0.26,0.029,0.459,0.072,0.604,0.131c0.172,0.057,0.316,0.129,0.431,0.215c0.029,0.347,0.118,0.785,0.26,1.316
			c0.145,0.533,0.396,1.051,0.755,1.555c0.359,0.503,0.85,0.928,1.468,1.272s1.43,0.519,2.439,0.519
			c1.495,0,2.682-0.476,3.559-1.426c0.879-0.949,1.318-2.158,1.318-3.625c0-0.805-0.167-1.538-0.496-2.201
			c-0.331-0.662-0.772-1.279-1.317-1.855c-0.546-0.576-1.173-1.114-1.878-1.619c-0.704-0.502-1.417-1.013-2.136-1.531
			c-0.776-0.518-1.54-1.058-2.288-1.619c-0.748-0.561-1.409-1.148-1.984-1.771c-0.576-0.616-1.043-1.278-1.403-1.984
			c-0.36-0.704-0.54-1.46-0.54-2.267c0-1.179,0.287-2.229,0.863-3.15c0.576-0.92,1.316-1.705,2.223-2.352s1.928-1.136,3.065-1.467
			c1.136-0.33,2.279-0.496,3.431-0.496c1.092,0,2.033,0.08,2.826,0.237c0.792,0.158,1.446,0.338,1.963,0.54
			c0.604,0.229,1.108,0.486,1.511,0.775c-0.028,0.893-0.051,1.625-0.065,2.201c-0.016,0.576-0.021,1.143-0.021,1.703
			c0,0.562,0.014,0.973,0.043,1.23c-0.317,0.087-0.605,0.123-0.863,0.109c-0.259-0.016-0.475-0.051-0.647-0.109
			c-0.202-0.058-0.388-0.145-0.562-0.258c0-0.547-0.07-1.094-0.217-1.641c-0.143-0.547-0.395-1.043-0.753-1.488
			c-0.361-0.447-0.863-0.805-1.511-1.08c-0.648-0.272-1.476-0.409-2.48-0.409c-1.065,0-1.994,0.339-2.785,1.014
			C441.883,147.785,441.489,148.887,441.489,150.412z"/>
		<path fill="#FFFFFF" d="M470.82,144.24c1.986,0,3.842,0.323,5.568,0.971c1.727,0.646,3.223,1.584,4.488,2.805
			c1.268,1.224,2.26,2.707,2.98,4.445c0.718,1.742,1.078,3.691,1.078,5.85c0,2.416-0.469,4.561-1.402,6.43
			c-0.937,1.871-2.152,3.439-3.647,4.705c-1.497,1.267-3.194,2.23-5.093,2.893c-1.9,0.662-3.813,0.992-5.741,0.992
			c-1.698,0-3.352-0.33-4.963-0.992c-1.612-0.662-3.058-1.618-4.339-2.871c-1.279-1.252-2.309-2.776-3.085-4.574
			c-0.774-1.799-1.167-3.848-1.167-6.15c0-2.158,0.418-4.13,1.254-5.913c0.832-1.784,1.949-3.317,3.344-4.597
			c1.396-1.28,3.021-2.268,4.877-2.957S468.777,144.24,470.82,144.24z M479.28,158.268c0-1.584-0.194-3.109-0.581-4.576
			c-0.389-1.467-0.974-2.771-1.75-3.906c-0.775-1.137-1.733-2.042-2.871-2.719c-1.137-0.676-2.452-1.014-3.948-1.014
			c-1.267,0-2.454,0.324-3.561,0.972c-1.108,0.647-2.079,1.547-2.913,2.697c-0.834,1.149-1.489,2.497-1.965,4.034
			c-0.474,1.541-0.711,3.188-0.711,4.943c0,1.295,0.187,2.697,0.562,4.208c0.373,1.509,0.928,2.9,1.661,4.165
			c0.733,1.266,1.655,2.324,2.764,3.172c1.107,0.85,2.396,1.273,3.863,1.273c1.209,0,2.379-0.287,3.519-0.863
			c1.136-0.576,2.142-1.425,3.021-2.547c0.877-1.123,1.582-2.51,2.113-4.164C479.014,162.289,479.28,160.396,479.28,158.268z"/>
		<path fill="#FFFFFF" d="M497.494,171.646v1.209H486.79v-1.209l2.417-0.474c0.027-0.028,0.113-0.224,0.258-0.584
			c0.145-0.359,0.217-0.812,0.217-1.359v-20.847c0-0.258-0.03-0.502-0.086-0.733c-0.059-0.229-0.117-0.432-0.174-0.604
			c-0.086-0.201-0.158-0.403-0.215-0.604l-2.417-0.433v-1.208h10.357c1.555,0,2.963,0.122,4.229,0.366
			c1.267,0.245,2.353,0.642,3.26,1.188c0.906,0.546,1.61,1.266,2.113,2.158c0.502,0.891,0.756,1.998,0.756,3.322
			c0,1.268-0.279,2.323-0.841,3.174c-0.563,0.847-1.224,1.531-1.987,2.049c-0.763,0.517-1.517,0.9-2.265,1.142
			c-0.749,0.246-1.31,0.41-1.683,0.497c0.718,0.26,1.351,0.654,1.898,1.187c0.547,0.534,1.037,1.138,1.467,1.814
			c0.434,0.675,0.812,1.402,1.144,2.179c0.329,0.775,0.653,1.539,0.973,2.289c0.257,0.662,0.532,1.316,0.819,1.962
			c0.287,0.647,0.604,1.23,0.949,1.747c0.345,0.517,0.719,0.943,1.122,1.273c0.403,0.331,0.835,0.496,1.295,0.496l-0.432,1.209
			h-4.403c-0.861,0-1.566-0.33-2.113-0.992s-1.014-1.482-1.402-2.459c-0.391-0.979-0.735-2.051-1.037-3.217
			c-0.303-1.165-0.642-2.236-1.014-3.216c-0.375-0.977-0.82-1.798-1.338-2.458c-0.518-0.661-1.166-0.993-1.942-0.993l-0.735-1.423
			c0.807-0.06,1.605-0.219,2.396-0.477c0.792-0.259,1.496-0.633,2.115-1.122c0.617-0.487,1.115-1.107,1.488-1.854
			c0.375-0.749,0.562-1.641,0.562-2.676c0-0.778-0.136-1.497-0.409-2.16c-0.275-0.662-0.654-1.236-1.143-1.726
			c-0.49-0.488-1.102-0.878-1.836-1.166c-0.732-0.288-1.546-0.434-2.438-0.434h-2.158v22.746c0,0.548,0.071,1.009,0.217,1.381
			c0.086,0.202,0.173,0.388,0.259,0.562L497.494,171.646z"/>
		<path fill="#FFFFFF" d="M531.672,152.009c0,0.49-0.065,1.014-0.196,1.575c-0.129,0.561-0.366,1.102-0.711,1.619
			c-0.346,0.517-0.806,0.992-1.381,1.424c-0.576,0.432-1.31,0.763-2.201,0.992c1.006,0.088,1.891,0.383,2.654,0.885
			c0.762,0.504,1.402,1.101,1.92,1.793c0.519,0.689,0.906,1.431,1.166,2.222c0.26,0.79,0.389,1.532,0.389,2.222
			c0,1.612-0.26,2.943-0.777,3.992c-0.516,1.051-1.222,1.877-2.112,2.481c-0.893,0.604-1.95,1.028-3.173,1.272
			c-1.223,0.246-2.54,0.367-3.949,0.367h-10.921v-1.121l2.373-0.518c0.028-0.059,0.115-0.268,0.261-0.626
			c0.143-0.359,0.215-0.812,0.215-1.36v-20.803c0-0.26-0.022-0.504-0.065-0.734c-0.042-0.23-0.093-0.433-0.149-0.604
			c-0.088-0.2-0.158-0.403-0.217-0.604l-2.417-0.518V144.8h9.235c1.381,0,2.685,0.116,3.906,0.347
			c1.223,0.229,2.287,0.625,3.194,1.186c0.905,0.561,1.625,1.303,2.158,2.223C531.405,149.477,531.672,150.627,531.672,152.009z
			 M520.191,146.527v10.66h0.691c3.94,0,5.913-1.74,5.913-5.222c0-0.776-0.103-1.496-0.303-2.158
			c-0.199-0.662-0.515-1.236-0.95-1.727c-0.43-0.487-0.978-0.87-1.641-1.144c-0.66-0.272-1.438-0.408-2.329-0.408h-1.382V146.527
			L520.191,146.527z M523.255,171.129c0.834,0,1.546-0.18,2.137-0.54c0.591-0.359,1.071-0.819,1.445-1.38s0.647-1.194,0.82-1.9
			c0.172-0.703,0.26-1.402,0.26-2.093c0-0.402-0.059-0.956-0.173-1.661c-0.116-0.705-0.367-1.402-0.757-2.093
			c-0.387-0.692-0.955-1.288-1.703-1.792s-1.77-0.756-3.062-0.756h-2.031v12.215H523.255L523.255,171.129z"/>
		<path fill="#FFFFFF" d="M550.255,144.24c1.985,0,3.842,0.323,5.568,0.971c1.725,0.646,3.221,1.584,4.489,2.805
			c1.266,1.224,2.257,2.707,2.978,4.445c0.719,1.742,1.078,3.691,1.078,5.85c0,2.416-0.467,4.561-1.402,6.43
			c-0.936,1.871-2.15,3.439-3.646,4.705c-1.496,1.267-3.195,2.23-5.094,2.893c-1.9,0.662-3.812,0.992-5.74,0.992
			c-1.697,0-3.352-0.33-4.963-0.992c-1.612-0.662-3.059-1.618-4.338-2.871c-1.281-1.252-2.31-2.776-3.086-4.574
			c-0.775-1.799-1.165-3.848-1.165-6.15c0-2.158,0.417-4.13,1.251-5.913c0.834-1.784,1.949-3.317,3.346-4.597
			c1.396-1.28,3.021-2.268,4.876-2.957C546.264,144.586,548.211,144.24,550.255,144.24z M558.714,158.268
			c0-1.584-0.193-3.109-0.581-4.576c-0.39-1.467-0.972-2.771-1.748-3.906c-0.776-1.137-1.734-2.042-2.871-2.719
			c-1.138-0.676-2.454-1.014-3.95-1.014c-1.266,0-2.453,0.324-3.559,0.972c-1.109,0.647-2.081,1.547-2.914,2.697
			c-0.836,1.149-1.49,2.497-1.964,4.034c-0.474,1.541-0.712,3.188-0.712,4.943c0,1.295,0.186,2.697,0.561,4.208
			c0.373,1.509,0.929,2.9,1.662,4.165c0.733,1.266,1.654,2.324,2.763,3.172c1.107,0.85,2.396,1.273,3.864,1.273
			c1.209,0,2.379-0.287,3.518-0.863c1.137-0.576,2.142-1.425,3.021-2.547c0.877-1.123,1.582-2.51,2.112-4.164
			C558.449,162.289,558.714,160.396,558.714,158.268z"/>
		<path fill="#FFFFFF" d="M593.88,144.801v1.208c-0.315,0.029-0.668,0.058-1.057,0.087s-0.748,0.108-1.079,0.237
			c-0.331,0.13-0.611,0.354-0.842,0.669c-0.23,0.318-0.345,0.792-0.345,1.426v24.427h-2.505l-16.833-21.451v17.868
			c0,0.517,0.123,0.928,0.367,1.229c0.243,0.304,0.546,0.541,0.907,0.714c0.357,0.171,0.761,0.288,1.207,0.345
			c0.446,0.059,0.885,0.102,1.315,0.131v1.165h-9.149v-1.165c0.376,0,0.756-0.014,1.145-0.043s0.726-0.123,1.015-0.28
			c0.285-0.158,0.525-0.404,0.712-0.733c0.188-0.33,0.279-0.784,0.279-1.359V149.29c0-0.546-0.13-1.014-0.388-1.404
			c-0.259-0.391-0.546-0.712-0.863-0.972c-0.346-0.315-0.749-0.576-1.207-0.775c-0.146-0.172-0.238-0.33-0.281-0.475
			c-0.045-0.145-0.094-0.287-0.152-0.434c-0.057-0.143-0.084-0.287-0.084-0.433h5.955l16.357,20.89v-17.263
			c0-0.517-0.115-0.935-0.346-1.251s-0.518-0.555-0.862-0.713c-0.347-0.158-0.741-0.266-1.188-0.325
			c-0.445-0.057-0.884-0.099-1.315-0.128v-1.21h9.237V144.801L593.88,144.801z"/>
		<path fill="#FFFFFF" d="M624.564,144.801v1.208c-0.316,0.029-0.669,0.058-1.058,0.087c-0.388,0.029-0.748,0.108-1.078,0.237
			c-0.331,0.13-0.612,0.354-0.841,0.669c-0.232,0.318-0.346,0.792-0.346,1.426v24.427h-2.506l-16.832-21.451v17.868
			c0,0.517,0.122,0.928,0.366,1.229c0.245,0.304,0.546,0.541,0.907,0.714c0.359,0.171,0.762,0.288,1.207,0.345
			c0.447,0.059,0.886,0.102,1.318,0.131v1.165h-9.15v-1.165c0.375,0,0.755-0.014,1.144-0.043c0.39-0.029,0.728-0.123,1.015-0.28
			c0.287-0.158,0.524-0.404,0.713-0.733c0.187-0.33,0.279-0.784,0.279-1.359V149.29c0-0.546-0.13-1.014-0.389-1.404
			c-0.258-0.391-0.546-0.712-0.861-0.972c-0.347-0.315-0.75-0.576-1.209-0.775c-0.145-0.172-0.238-0.33-0.281-0.475
			c-0.044-0.145-0.094-0.287-0.15-0.434c-0.058-0.143-0.086-0.287-0.086-0.433h5.955l16.357,20.89v-17.263
			c0-0.517-0.115-0.935-0.346-1.251s-0.518-0.555-0.862-0.713s-0.741-0.266-1.187-0.325c-0.447-0.057-0.886-0.099-1.318-0.128v-1.21
			h9.238V144.801L624.564,144.801z"/>
		<path fill="#FFFFFF" d="M648.441,168.195c-0.086,0.488-0.173,0.99-0.26,1.508c-0.057,0.463-0.106,0.959-0.15,1.489
			c-0.041,0.533-0.064,1.088-0.064,1.663H627.68v-1.166l2.376-0.475c0.029-0.029,0.114-0.224,0.258-0.584
			c0.146-0.359,0.218-0.812,0.218-1.359v-20.846c0-0.259-0.03-0.504-0.089-0.734c-0.058-0.23-0.115-0.433-0.17-0.604
			c-0.088-0.2-0.16-0.402-0.217-0.604l-2.376-0.562V144.8h18.302c0.027,0.634,0.086,1.272,0.172,1.921
			c0.086,0.646,0.172,1.23,0.258,1.748c0.114,0.604,0.23,1.194,0.346,1.77c-0.375,0-0.684-0.014-0.929-0.043
			c-0.244-0.027-0.438-0.07-0.583-0.13c-0.172-0.057-0.316-0.129-0.431-0.216c-0.058-0.23-0.13-0.475-0.215-0.732
			c-0.146-0.461-0.347-0.864-0.604-1.209c-0.202-0.287-0.469-0.518-0.802-0.691c-0.329-0.172-0.676-0.309-1.035-0.41
			c-0.359-0.101-0.713-0.171-1.058-0.215c-0.346-0.043-0.646-0.066-0.906-0.066h-4.748v10.705h5.87c0.604,0,0.978-0.346,1.12-1.037
			c0.146-0.691,0.246-1.625,0.303-2.805l1.468,0.217v8.891l-1.468,0.041c-0.058-1.064-0.166-1.934-0.324-2.611
			c-0.158-0.676-0.524-1.014-1.099-1.014h-5.871v12.258h6.69c0.26,0,0.566-0.014,0.928-0.041c0.36-0.029,0.727-0.079,1.102-0.152
			c0.372-0.071,0.726-0.188,1.057-0.346c0.331-0.157,0.597-0.381,0.801-0.669c0.257-0.347,0.43-0.776,0.518-1.298
			c0.057-0.257,0.099-0.531,0.128-0.818L648.441,168.195z"/>
	</g>
	<rect x="309.852" y="186.973" fill="#C8910F" width="233.58" height="1.494"/>
	<g>
		<path fill="#FFFFFF" d="M309.892,117.289c0-0.198,0.177-0.376,0.376-0.376h0.751c0.218,0,0.375,0.178,0.375,0.376v8.241
			c0,2.255,1.404,4.015,3.716,4.015c2.333,0,3.755-1.719,3.755-3.974v-8.282c0-0.198,0.158-0.376,0.375-0.376h0.751
			c0.197,0,0.376,0.178,0.376,0.376v8.361c0,3.004-2.135,5.297-5.258,5.297c-3.103,0-5.218-2.293-5.218-5.297V117.289
			L309.892,117.289z"/>
		<path fill="#FFFFFF" d="M327.666,117.071c0-0.197,0.178-0.356,0.376-0.356h0.494l8.914,11.109h0.041v-10.535
			c0-0.199,0.158-0.376,0.375-0.376h0.692c0.198,0,0.376,0.177,0.376,0.376v13.302c0,0.198-0.177,0.355-0.376,0.355h-0.356
			l-9.073-11.327h-0.019v10.753c0,0.198-0.159,0.376-0.377,0.376h-0.691c-0.197,0-0.376-0.178-0.376-0.376V117.071z"/>
		<path fill="#FFFFFF" d="M346.409,117.289c0-0.198,0.179-0.376,0.376-0.376h0.791c0.197,0,0.376,0.178,0.376,0.376v13.084
			c0,0.199-0.178,0.377-0.376,0.377h-0.791c-0.196,0-0.376-0.178-0.376-0.377V117.289z"/>
		<path fill="#FFFFFF" d="M353.547,117.427c-0.119-0.257,0.039-0.514,0.336-0.514h0.79c0.178,0,0.297,0.118,0.336,0.218
			l4.922,11.068h0.079l4.922-11.068c0.039-0.099,0.177-0.218,0.334-0.218h0.792c0.297,0,0.456,0.257,0.335,0.514l-6.008,13.302
			c-0.06,0.118-0.177,0.218-0.336,0.218h-0.197c-0.139,0-0.276-0.099-0.336-0.218L353.547,117.427z"/>
		<path fill="#FFFFFF" d="M371.992,117.289c0-0.198,0.158-0.376,0.375-0.376h7.789c0.216,0,0.375,0.178,0.375,0.376v0.573
			c0,0.198-0.159,0.376-0.375,0.376h-6.642v4.823h5.673c0.196,0,0.375,0.178,0.375,0.376v0.574c0,0.218-0.178,0.376-0.375,0.376
			h-5.673v5.04h6.642c0.216,0,0.375,0.178,0.375,0.376v0.573c0,0.199-0.159,0.375-0.375,0.375h-7.788
			c-0.218,0-0.375-0.176-0.375-0.375L371.992,117.289L371.992,117.289z"/>
		<path fill="#FFFFFF" d="M392.535,124.028c1.521,0,2.847-1.264,2.847-2.885c0-1.503-1.325-2.788-2.847-2.788h-3.835v5.672H392.535z
			 M387.138,117.289c0-0.198,0.158-0.376,0.376-0.376h5.12c2.372,0,4.309,1.858,4.309,4.211c0,1.817-1.206,3.34-2.926,4.032
			l2.708,5.021c0.139,0.257,0,0.573-0.336,0.573h-1.009c-0.177,0-0.276-0.1-0.315-0.178l-2.63-5.237h-3.775v5.04
			c0,0.197-0.177,0.375-0.377,0.375h-0.77c-0.218,0-0.376-0.176-0.376-0.375L387.138,117.289L387.138,117.289z"/>
		<path fill="#FFFFFF" d="M402.758,128.674c0.098-0.119,0.196-0.257,0.296-0.375c0.197-0.256,0.416-0.416,0.692-0.179
			c0.139,0.119,1.582,1.503,3.34,1.503c1.603,0,2.649-1.008,2.649-2.175c0-1.364-1.186-2.174-3.458-3.124
			c-2.174-0.947-3.48-1.837-3.48-4.091c0-1.344,1.068-3.518,4.209-3.518c1.938,0,3.38,1.007,3.38,1.007
			c0.12,0.059,0.356,0.296,0.12,0.672c-0.079,0.118-0.158,0.257-0.237,0.375c-0.178,0.276-0.377,0.356-0.693,0.179
			c-0.138-0.079-1.382-0.909-2.588-0.909c-2.095,0-2.728,1.344-2.728,2.174c0,1.324,1.007,2.096,2.667,2.787
			c2.669,1.087,4.388,2.095,4.388,4.389c0,2.055-1.957,3.557-4.27,3.557c-2.333,0-3.914-1.363-4.17-1.601
			C402.718,129.207,402.521,129.05,402.758,128.674"/>
		<path fill="#FFFFFF" d="M417.625,117.289c0-0.198,0.179-0.376,0.376-0.376h0.791c0.197,0,0.376,0.178,0.376,0.376v13.084
			c0,0.199-0.178,0.377-0.376,0.377h-0.791c-0.196,0-0.376-0.178-0.376-0.377V117.289z"/>
		<path fill="#FFFFFF" d="M428.597,118.237h-3.439c-0.218,0-0.375-0.177-0.375-0.376v-0.572c0-0.198,0.157-0.376,0.375-0.376h8.381
			c0.219,0,0.377,0.178,0.377,0.376v0.572c0,0.198-0.159,0.376-0.377,0.376h-3.439v12.136c0,0.199-0.177,0.377-0.375,0.377h-0.752
			c-0.195,0-0.375-0.178-0.375-0.377V118.237L428.597,118.237z"/>
		<path fill="#FFFFFF" d="M442.002,114.837c-0.079-0.158,0-0.315,0.118-0.375l2.965-1.661c0.12-0.08,0.416-0.119,0.514,0.06
			l0.355,0.71c0.078,0.158,0.039,0.356-0.118,0.416l-3.185,1.325c-0.275,0.118-0.375,0.118-0.453-0.04L442.002,114.837z
			 M439.531,117.289c0-0.198,0.158-0.376,0.377-0.376h7.787c0.218,0,0.376,0.178,0.376,0.376v0.573c0,0.198-0.158,0.376-0.376,0.376
			h-6.641v4.823h5.672c0.197,0,0.377,0.178,0.377,0.376v0.574c0,0.218-0.179,0.376-0.377,0.376h-5.672v5.04h6.641
			c0.218,0,0.376,0.178,0.376,0.376v0.573c0,0.199-0.158,0.375-0.376,0.375h-7.787c-0.219,0-0.377-0.176-0.377-0.375V117.289z"/>
		<path fill="#FFFFFF" d="M467.152,124.267c1.619,0,3.003-1.325,3.003-3.025c0-1.601-1.384-2.825-3.003-2.825h-3.144v5.85H467.152
			L467.152,124.267z M462.505,117.289c0-0.198,0.158-0.376,0.375-0.376h4.369c2.432,0,4.427,1.977,4.427,4.369
			c0,2.451-1.995,4.447-4.407,4.447h-3.261v4.646c0,0.197-0.179,0.375-0.376,0.375h-0.752c-0.217,0-0.375-0.178-0.375-0.375V117.289
			L462.505,117.289z"/>
		<path fill="#FFFFFF" d="M484.628,126.045c-0.969-2.155-1.918-4.329-2.887-6.484h-0.158l-2.885,6.484H484.628z M475.239,130.234
			l6.009-13.302c0.059-0.12,0.158-0.218,0.336-0.218h0.197c0.178,0,0.275,0.098,0.335,0.218l5.97,13.302
			c0.12,0.259-0.037,0.514-0.335,0.514h-0.792c-0.176,0-0.296-0.119-0.336-0.218l-1.461-3.261h-7.018l-1.443,3.261
			c-0.039,0.098-0.157,0.218-0.334,0.218h-0.791C475.279,130.75,475.121,130.493,475.239,130.234"/>
		<path fill="#FFFFFF" d="M499.082,124.028c1.521,0,2.846-1.264,2.846-2.885c0-1.503-1.325-2.788-2.846-2.788h-3.835v5.672H499.082z
			 M493.685,117.289c0-0.198,0.158-0.376,0.376-0.376h5.118c2.373,0,4.312,1.858,4.312,4.211c0,1.817-1.206,3.34-2.927,4.032
			l2.71,5.021c0.138,0.257,0,0.573-0.335,0.573h-1.01c-0.177,0-0.277-0.1-0.318-0.178l-2.629-5.237h-3.775v5.04
			c0,0.197-0.176,0.375-0.375,0.375h-0.771c-0.217,0-0.377-0.176-0.377-0.375V117.29L493.685,117.289L493.685,117.289z"/>
		<path fill="#FFFFFF" d="M510.195,117.289c0-0.198,0.178-0.376,0.376-0.376h0.79c0.197,0,0.375,0.178,0.375,0.376v13.084
			c0,0.199-0.178,0.377-0.375,0.377h-0.79c-0.198,0-0.376-0.178-0.376-0.377V117.289z"/>
		<path fill="#FFFFFF" d="M518.32,128.674c0.099-0.119,0.197-0.257,0.297-0.375c0.198-0.256,0.414-0.416,0.693-0.179
			c0.139,0.119,1.58,1.503,3.34,1.503c1.602,0,2.649-1.008,2.649-2.175c0-1.364-1.187-2.174-3.459-3.124
			c-2.174-0.947-3.479-1.837-3.479-4.091c0-1.344,1.066-3.518,4.211-3.518c1.937,0,3.379,1.007,3.379,1.007
			c0.12,0.059,0.356,0.296,0.12,0.672c-0.081,0.118-0.16,0.257-0.238,0.375c-0.179,0.276-0.377,0.356-0.692,0.179
			c-0.138-0.079-1.384-0.909-2.589-0.909c-2.096,0-2.729,1.344-2.729,2.174c0,1.324,1.008,2.096,2.67,2.787
			c2.668,1.087,4.387,2.095,4.387,4.389c0,2.055-1.956,3.557-4.27,3.557c-2.332,0-3.912-1.363-4.17-1.601
			C518.281,129.207,518.083,129.05,518.32,128.674"/>
		<path fill="#FFFFFF" d="M541.945,119.759l-1.422,1.107c-0.158,0.118-0.316,0.138-0.455-0.02l-0.377-0.416
			c-0.138-0.158-0.059-0.335,0.04-0.435l2.769-2.688h0.533c0.197,0,0.355,0.179,0.355,0.376v12.689c0,0.199-0.158,0.377-0.355,0.377
			h-0.713c-0.217,0-0.375-0.178-0.375-0.377V119.759L541.945,119.759z"/>
	</g>
</g>
</svg>
